/* XPM */
static char * bottom_right_inactive_xpm[] = {
"22 22 3 1",
" 	c None",
".	c #D3D3DD s inactive_color_2",
"+	c #8E8EA1 s inactive_shadow_2",
"                .....+",
"                .....+",
"                .....+",
"                .....+",
"                .....+",
"                .....+",
"                .....+",
"                .....+",
"                .....+",
"                .....+",
"                .....+",
"                .....+",
"                .....+",
"                .....+",
"                .....+",
"                .....+",
".....................+",
".....................+",
".....................+",
".....................+",
".....................+",
"++++++++++++++++++++++"};
