/* XPM */
static char * bottom_active_xpm[] = {
"4 6 4 1",
" 	c None",
".	c #D3D3DD s inactive_color_2",
"+	c #8E8EA1 s inactive_shadow_2",
"@	c #000000",
"....",
"....",
"....",
"....",
"++++",
"@@@@"};
