/* XPM */
static char * bottom_left_inactive_xpm[] = {
"22 22 4 1",
" 	c None",
".	c #FFFFFF s inactive_hilight_2",
"+	c #D3D3DD s inactive_color_2",
"@	c #8E8EA1 s inactive_shadow_2",
".+++++                ",
".+++++                ",
".+++++                ",
".+++++                ",
".+++++                ",
".+++++                ",
".+++++                ",
".+++++                ",
".+++++                ",
".+++++                ",
".+++++                ",
".+++++                ",
".+++++                ",
".+++++                ",
".+++++                ",
".+++++                ",
".+++++++++++++++++++++",
".+++++++++++++++++++++",
".+++++++++++++++++++++",
".+++++++++++++++++++++",
".+++++++++++++++++++++",
".@@@@@@@@@@@@@@@@@@@@@"};
