/* XPM */
static char * close_pressed_xpm[] = {
"17 18 5 1",
" 	c None",
".	c #8E8EA1 s inactive_shadow_2",
"+	c #FFFFFF s inactive_hilight_2",
"@	c #000000",
"#	c #D3D3DD s inactive_color_2",
"................+",
".@@@@@@@@@@@@@@@+",
".@.............@+",
".@.............@+",
".@.............@+",
".@.............@+",
".@.............@+",
".@.............@+",
".@.............@+",
".@.............@+",
".@.............@+",
".@.............@+",
".@.............@+",
".@.............@+",
".@.............@+",
".@@@@@@@@@@@@@@@+",
"+++++++++++++++++",
"#################"};
