/* XPM */
static char * left_inactive_xpm[] = {
"6 1 3 1",
" 	c None",
".	c #FFFFFF s inactive_hilight_2",
"+	c #D3D3DD s inactive_color_2",
".+++++"};
