/* XPM */
static char * left_active_xpm[] = {
"6 1 4 1",
" 	c None",
".	c #000000",
"+	c #FFFFFF s inactive_hilight_2",
"@	c #D3D3DD s inactive_color_2",
".+@@@@"};
