/* XPM */
static char * stick_inactive_xpm[] = {
"17 18 3 1",
" 	c None",
".	c #8E8EA1 s inactive_shadow_2",
"+	c #D3D3DD s inactive_color_2",
"................+",
".++++++++++++++.+",
".++++++++++++++.+",
".++++++++++++++.+",
".++++++++++++++.+",
".++++++++++++++.+",
".++++++++++++++.+",
".++++++...+++++.+",
".++++++.+.+++++.+",
".++++++...+++++.+",
".++++++++++++++.+",
".++++++++++++++.+",
".++++++++++++++.+",
".++++++++++++++.+",
".++++++++++++++.+",
"................+",
"+++++++++++++++++",
"+++++++++++++++++"};
