/* XPM */
static char * title_1_active_xpm[] = {
"4 26 5 1",
" 	c None",
".	c #000000",
"+	c #FFFFFF s inactive_hilight_2",
"@	c #D3D3DD s inactive_color_2",
"#	c #8E8EA1 s inactive_shadow_2",
"....",
"++++",
"@@@@",
"@@@@",
"@@@@",
"++++",
"####",
"@@@@",
"++++",
"####",
"@@@@",
"++++",
"####",
"@@@@",
"++++",
"####",
"@@@@",
"++++",
"####",
"@@@@",
"@@@@",
"@@@@",
"@@@@",
"@@@@",
"@@@@",
"@@@@"};
