/* XPM */
static char * title_1_inactive_xpm[] = {
"4 26 3 1",
" 	c None",
".	c #FFFFFF s inactive_hilight_2",
"+	c #D3D3DD s inactive_color_2",
"....",
"++++",
"++++",
"++++",
"++++",
"++++",
"++++",
"++++",
"++++",
"++++",
"++++",
"++++",
"++++",
"++++",
"++++",
"++++",
"++++",
"++++",
"++++",
"++++",
"++++",
"++++",
"++++",
"++++",
"++++",
"++++"};
