/* XPM */
static char * top_right_inactive_xpm[] = {
"46 26 4 1",
" 	c None",
".	c #FFFFFF s inactive_hilight_2",
"+	c #D3D3DD s inactive_color_2",
"@	c #8E8EA1 s inactive_shadow_2",
"..............................................",
"+++++++++++++++++++++++++++++++++++++++++++++@",
"+++++++++++++++++++++++++++++++++++++++++++++@",
"+++++++++++++++++++++++++++++++++++++++++++++@",
"+++++++++++++++++++++++++++++++++++++++++++++@",
"+++++++++++++++++++++++++++++++++++++++++++++@",
"+++++++++++++++++++++++++++++++++++++++++++++@",
"+++++++++++++++++++++++++++++++++++++++++++++@",
"+++++++++++++++++++++++++++++++++++++++++++++@",
"+++++++++++++++++++++++++++++++++++++++++++++@",
"+++++++++++++++++++++++++++++++++++++++++++++@",
"+++++++++++++++++++++++++++++++++++++++++++++@",
"+++++++++++++++++++++++++++++++++++++++++++++@",
"+++++++++++++++++++++++++++++++++++++++++++++@",
"+++++++++++++++++++++++++++++++++++++++++++++@",
"+++++++++++++++++++++++++++++++++++++++++++++@",
"+++++++++++++++++++++++++++++++++++++++++++++@",
"+++++++++++++++++++++++++++++++++++++++++++++@",
"+++++++++++++++++++++++++++++++++++++++++++++@",
"+++++++++++++++++++++++++++++++++++++++++++++@",
"+++++++++++++++++++++++++++++++++++++++++++++@",
"+++++++++++++++++++++++++++++++++++++++++++++@",
"+++++++++++++++++++++++++++++++++++++++++++++@",
"+++++++++++++++++++++++++++++++++++++++++++++@",
"+++++++++++++++++++++++++++++++++++++++++++++@",
"+++++++++++++++++++++++++++++++++++++++++++++@"};
